<?xml version="1.0" standalone="no"?>
<!DOCTYPE svg PUBLIC "-//W3C//DTD SVG 20010904//EN"
 "http://www.w3.org/TR/2001/REC-SVG-20010904/DTD/svg10.dtd">
<svg version="1.0" xmlns="http://www.w3.org/2000/svg"
 width="204.000000pt" height="192.000000pt" viewBox="0 0 204.000000 192.000000"
 preserveAspectRatio="xMidYMid meet">

<g transform="translate(0.000000,192.000000) scale(0.100000,-0.100000)"
fill="#000000" stroke="none">
<path d="M2017 1320 c-21 -46 -63 -79 -115 -91 -20 -4 -183 -9 -361 -9 -179
-1 -319 -5 -313 -9 9 -5 4 -15 -14 -32 -49 -46 -54 -74 -54 -302 0 -195 -1
-213 -22 -253 -24 -50 -75 -80 -150 -90 -43 -6 -46 -5 -52 20 -3 14 -4 61 0
104 10 123 -14 185 -93 239 -35 24 -48 26 -181 31 -115 4 -158 1 -226 -14 -47
-10 -82 -22 -80 -26 3 -4 -8 -8 -24 -8 -17 0 -32 -6 -35 -14 -3 -7 -23 -18
-44 -23 -30 -7 -38 -14 -37 -31 0 -17 -4 -21 -18 -16 -11 3 -18 0 -18 -8 0
-10 -3 -9 -10 2 -8 13 -10 12 -10 -2 0 -10 -5 -18 -10 -18 -6 0 -23 -12 -37
-26 -16 -16 -33 -24 -44 -21 -11 3 -16 1 -13 -4 5 -9 -30 -67 -49 -80 -5 -3
-7 -117 -5 -252 l3 -245 30 -43 c48 -69 78 -81 224 -90 69 -4 498 -8 954 -9
l827 0 0 680 c0 374 -1 680 -2 680 -2 0 -11 -18 -21 -40z m-1616 -623 c13 -23
33 -61 44 -84 11 -24 22 -43 25 -43 3 0 26 38 50 85 l45 85 73 0 c39 0 72 -2
72 -5 0 -3 -32 -57 -70 -120 -39 -63 -73 -121 -76 -129 -3 -9 22 -61 59 -123
102 -171 100 -153 12 -153 l-75 0 -47 94 -47 95 -36 -67 c-73 -133 -66 -127
-142 -129 -38 0 -68 2 -68 6 0 4 13 27 28 52 70 109 125 203 125 213 0 7 -32
66 -71 133 -40 67 -72 125 -72 130 0 4 33 7 73 5 l73 -3 25 -42z"/>
<path d="M568 1203 c6 -2 18 -2 25 0 6 3 1 5 -13 5 -14 0 -19 -2 -12 -5z"/>
<path d="M263 923 c9 -2 25 -2 35 0 9 3 1 5 -18 5 -19 0 -27 -2 -17 -5z"/>
<path d="M305 900 c3 -5 8 -10 11 -10 2 0 4 5 4 10 0 6 -5 10 -11 10 -5 0 -7
-4 -4 -10z"/>
</g>
</svg>
